<?xml version="1.0" encoding="utf-8"?>
<!-- Generator: Adobe Illustrator 24.1.1, SVG Export Plug-In . SVG Version: 6.00 Build 0)  -->
<svg version="1.1" id="Слой_1" xmlns="http://www.w3.org/2000/svg" xmlns:xlink="http://www.w3.org/1999/xlink" x="0px" y="0px"
	 viewBox="0 0 118.1 124" style="enable-background:new 0 0 118.1 124;" xml:space="preserve">
<style type="text/css">
	.st0{fill:#5A64B0;}
	.st1{fill:url(#SVGID_1_);}
	.st2{fill:url(#SVGID_2_);}
	.st3{fill:#FFFFFF;}
</style>
<g>
	<ellipse class="st0" cx="59" cy="62" rx="59" ry="62"/>
	
		<linearGradient id="SVGID_1_" gradientUnits="userSpaceOnUse" x1="-39.9846" y1="177.2444" x2="-39.9846" y2="149.4194" gradientTransform="matrix(1.4762 0 0 -1.4762 118.0726 344.5714)">
		<stop  offset="0" style="stop-color:#8793F3"/>
		<stop  offset="1" style="stop-color:#5562CB"/>
	</linearGradient>
	<ellipse class="st1" cx="59" cy="62" rx="59" ry="62"/>
</g>
<linearGradient id="SVGID_2_" gradientUnits="userSpaceOnUse" x1="-39.9846" y1="233.4194" x2="-39.9846" y2="153.4194" gradientTransform="matrix(1.4762 0 0 -1.4762 118.0726 344.5714)">
	<stop  offset="0" style="stop-color:#ABB5FF"/>
	<stop  offset="1" style="stop-color:#7986EC"/>
</linearGradient>
<circle class="st2" cx="59" cy="59" r="59"/>
<path class="st3" d="M70.2,60l-13.1-9c-0.6-0.4-1.2-0.6-1.7-0.6c-1,0-1.6,0.8-1.6,2.1v19.4c0,1.3,0.6,2.1,1.6,2.1
	c0.5,0,1.1-0.2,1.7-0.6l13.1-9c0.8-0.6,1.3-1.4,1.3-2.2C71.5,61.3,71,60.6,70.2,60z"/>
</svg>
